<svg width="163" height="40" viewBox="0 0 163 40" fill="none" xmlns="http://www.w3.org/2000/svg">
<path d="M70.425 6.07233C70.4251 12.1099 70.4549 12.2569 71.2073 10.961C73.0073 7.89799 78.0677 7.30889 80.8264 9.84187C82.0803 10.9905 82.8773 12.4926 83.2756 14.4659C83.5116 15.6291 83.5116 19.2366 83.2756 20.3565C82.4642 24.2149 80.3836 26.2768 76.9905 26.5714C74.5859 26.7628 72.2843 25.6883 71.2073 23.8624C70.691 22.9789 70.4251 23.0226 70.425 23.9942C70.425 24.4213 70.3814 25.1287 70.3372 25.5411L70.2336 26.3214H65.7043V0.548897H70.425V6.07233ZM141.963 8.50202L142.022 14.2012C142.081 20.1804 142.111 20.5194 142.76 21.4766C143.97 23.2729 147.274 23.0669 148.573 21.1231C148.838 20.7256 149.118 20.1657 149.206 19.8712C149.295 19.5472 149.354 17.1462 149.354 13.9063V8.50202H154.223V26.3214H149.694L149.59 25.7618C149.546 25.4672 149.501 24.7307 149.501 24.1417C149.501 23.288 149.457 23.0813 149.266 23.0811C149.148 23.0811 148.956 23.3025 148.838 23.5675C148.499 24.3921 147.481 25.3939 146.507 25.88C143.32 27.441 139.219 26.2476 137.965 23.42C137.316 21.9474 137.272 21.2847 137.257 14.7169V8.50202H141.963ZM92.8206 8.35358C93.9418 8.14742 96.3466 8.29506 97.4973 8.64851C100.418 9.54683 102.395 11.6968 103.118 14.7598C103.458 16.2473 103.428 18.8545 103.044 20.3272C102.277 23.2577 100.462 25.2012 97.6741 26.129C96.6121 26.4676 96.2285 26.5118 94.5471 26.5118C92.8653 26.5118 92.4813 26.4677 91.4338 26.129C88.6013 25.1864 86.7569 23.2277 85.9602 20.2676C85.6062 18.9567 85.6061 15.8644 85.9749 14.5391C86.9191 11.093 89.2208 9.00157 92.8206 8.35358ZM110.775 11.2266C111.747 12.7126 112.617 13.9488 112.693 13.9512C112.781 13.9512 113.637 12.714 114.611 11.2266L116.381 8.50202H119.081C121.205 8.50203 121.766 8.54624 121.677 8.67878C121.617 8.78399 120.319 10.6831 118.785 12.876C117.266 15.085 116.012 16.9703 116.012 17.0587C116.014 17.1505 117.43 19.2256 119.155 21.6534C120.866 24.0833 122.312 26.1305 122.326 26.2042C122.353 26.263 121.129 26.3214 119.597 26.3214H116.809L114.758 23.3028C113.637 21.6387 112.634 20.2833 112.545 20.2833C112.441 20.2846 111.424 21.6096 110.259 23.2432C109.094 24.8632 108.075 26.2333 107.987 26.2628C107.883 26.3069 106.673 26.3068 105.272 26.2921L102.749 26.2481L106.054 21.7266L109.373 17.2061L106.452 13.0382C104.845 10.7412 103.473 8.78249 103.413 8.67878C103.325 8.54624 103.915 8.50202 106.157 8.50202H109.004L110.775 11.2266ZM131.459 0.181709C132.359 -0.0391213 135.544 -0.0692751 135.9 0.151436C136.018 0.239797 136.076 0.799894 136.076 2.08112V3.878L134.749 3.81843C132.079 3.68589 131.178 4.51103 130.972 7.23542L130.869 8.50202H135.487V12.3311H130.913V26.3214H126.193V12.3311L123.758 12.3018L121.323 12.2579L122.608 10.3868L123.906 8.51667L125.027 8.50202H126.148L126.237 6.83796C126.325 4.9971 126.635 3.90709 127.358 2.84675C128.258 1.55084 129.674 0.638231 131.459 0.181709ZM162.485 26.3214H157.764V0.549873H162.485V26.3214ZM75.4563 12.1983C74.6006 12.0216 74.5855 12.0217 73.7151 12.1837C72.83 12.3604 72.2988 12.6699 71.6497 13.421C70.809 14.3781 70.5725 15.2469 70.5725 17.3966C70.5725 20.2241 71.1191 21.5058 72.6682 22.2569C74.7925 23.3022 77.0788 22.6245 77.9934 20.6807C78.967 18.6337 78.8053 15.2463 77.6545 13.5675C77.1382 12.8313 76.4741 12.4192 75.4563 12.1983ZM94.5471 12.1827C92.6588 12.1827 91.4785 13.0519 90.8293 14.878C90.6228 15.4671 90.5637 16.086 90.5637 17.5587C90.5637 19.355 90.5932 19.5316 90.9915 20.4005C91.7144 21.9615 92.8058 22.6837 94.4729 22.6837C95.6236 22.6837 96.406 22.374 97.1584 21.6524C98.2352 20.6068 98.7364 18.5302 98.4709 16.3067C98.2201 14.3333 97.4527 13.0668 96.1692 12.463C95.771 12.2863 95.2402 12.1827 94.5471 12.1827Z" fill="url(#paint0_linear_3_1194)"/>
<path d="M32.8997 27.8242L33.3586 28.543C34.1244 29.7507 34.4461 30.8216 34.5686 32.5645C34.7064 34.4139 34.9975 35.1631 35.9163 35.9121C36.5901 36.4777 38.229 37.1806 39.6838 37.5322C40.8172 37.8227 40.8022 37.7927 40.6184 39.1992L40.511 39.9023H31.9954L31.9495 35.6523C31.8882 30.7143 31.8883 30.6833 30.3108 28.9863C29.7911 28.437 29.3786 27.9487 29.3772 27.9014C29.3772 27.8555 30.1731 27.8242 31.1379 27.8242H32.8997ZM39.2698 0L40.8323 2.29297L42.4094 4.58691H20.0803L18.5178 6.92578C17.6763 8.20878 16.9722 9.30855 16.9709 9.38672C16.9709 9.5394 19.4455 13.1379 19.5588 13.1475C19.6048 13.1475 20.3402 12.1081 21.1672 10.8545L22.6838 8.56152H33.8792L45.0745 8.57617L48.1682 13.2246L43.7883 19.752L39.4075 26.2803L28.2737 26.2959H17.1243L16.2971 27.4121C14.7044 29.5522 13.6781 30.1634 11.6106 30.1787C10.4926 30.194 10.1863 30.1325 9.38989 29.7656C8.8845 29.5363 8.19493 29.2766 7.82739 29.2002C6.41846 28.8793 4.79487 29.6439 2.71216 31.6006C2.14554 32.1356 1.63994 32.5635 1.59399 32.5635C1.4994 32.5615 0.398859 31.86 0.0012207 31.5547C-0.0819437 31.4794 4.28143 24.0171 4.39673 24.0635C8.48592 26.3414 10.7836 27.5339 11.2737 27.6104C12.3764 27.7785 13.1116 27.3044 14.3674 25.6074L15.47 24.125L8.11841 13.209L12.5452 6.60449L16.9866 0H39.2698Z" fill="#FF4300"/>
<defs>
<linearGradient id="paint0_linear_3_1194" x1="88.6631" y1="13.2966" x2="162.485" y2="13.2966" gradientUnits="userSpaceOnUse">
<stop stop-color="#FF4300"/>
<stop offset="0.625" stop-color="#FF4300"/>
<stop offset="0.775624" stop-color="#F37F95"/>
<stop offset="1" stop-color="#AE8CFF"/>
</linearGradient>
</defs>
</svg>
