<svg width="374" height="593" viewBox="0 0 374 593" fill="none" xmlns="http://www.w3.org/2000/svg">
<g opacity="0.2">
<path d="M-415.477 507.794C-409.368 516.023 -403.073 524.023 -395.943 531.393C-390.264 537.26 -384.198 542.756 -377.818 547.851C-363.456 559.323 -348.352 569.446 -331.73 577.352C-314.963 585.326 -297.366 591.814 -279.278 596.05C-261.19 600.285 -243 602.57 -224.702 603.017C-206.623 603.46 -188.555 601.613 -170.749 598.571C-155.108 595.897 -139.713 591.808 -124.757 586.511C-92.7071 575.163 -62.43 559.375 -34.9795 539.308C-20.1005 528.432 -5.81986 516.836 7.52098 504.111C20.8618 491.386 34.1764 476.816 46.1446 461.977C71.3023 430.782 93.0775 397.223 111.843 361.828C120.138 346.182 127.99 330.272 135.095 314.044C142.352 297.466 149.097 280.589 154.301 263.24C159.49 245.952 162.83 228.315 164.58 210.346C166.289 192.797 165.279 175.318 162.199 157.963C160.862 150.429 158.954 142.997 156.402 135.784C153.308 127.031 149.649 118.375 145.227 110.201C141.837 103.936 137.974 97.9276 133.71 92.2244C128.082 84.7043 122.328 77.4026 115.709 70.7256C109.015 63.9724 101.681 58.085 94.144 52.3015C88.3615 47.8635 82.3151 43.79 76.0081 40.1323C69.695 36.471 63.1447 33.2348 56.4096 30.4253C47.6215 26.7587 38.8245 23.3209 29.6106 20.8608C-3.068 12.1357 -38.2334 13.0971 -70.6484 22.5474C-103.608 32.1591 -133.967 49.8734 -159.064 73.2393C-171.61 84.9216 -182.673 98.3421 -192.211 112.574C-202.395 127.761 -210.118 144.386 -216.464 161.502C-222.135 176.805 -226.055 192.746 -228.297 208.908C-230.819 227.12 -232.048 245.329 -230.927 263.703C-229.806 282.115 -227.013 300.606 -222.319 318.455C-217.605 336.377 -210.859 353.835 -202.937 370.57C-195.735 385.781 -187.164 400.333 -177.477 414.09C-166.711 429.381 -154.942 444 -141.969 457.48C-130.314 469.592 -117.754 480.815 -104.472 491.117C-91.2271 501.39 -77.6602 511.048 -63.1602 519.481C-50.7583 526.695 -37.8927 533.105 -24.6802 538.695C-9.32059 545.191 6.242 551.038 22.2911 555.594C51.796 563.968 82.6366 568.6 113.29 569.427C127.566 569.813 141.874 569.277 156.076 567.766C172.11 566.06 188.09 563.537 203.739 559.627C219.568 555.674 234.801 550.188 249.848 543.917C262.895 538.481 275.517 532.024 287.531 524.581C318.528 505.38 345.947 480.471 368.661 452.008C381.094 436.429 392.618 420.213 402.851 403.101C412.057 387.71 420.315 371.759 427.747 355.438C442.49 323.075 455.237 289.342 463.093 254.594C467.057 237.054 469.735 219.129 470.933 201.186C472.135 183.164 471.047 165.394 468.444 147.539C465.93 130.291 460.905 113.839 453.931 97.8858C447.363 82.869 438.094 69.2343 427.619 56.6796C417.134 44.1195 404.533 33.3362 390.972 24.2224C385.134 20.2984 378.997 16.8164 372.611 13.8639C364.569 10.1482 356.233 6.77936 347.667 4.44737C314.739 -4.5204 278.719 0.116267 249.524 17.9736C241.741 22.7356 234.35 28.36 227.581 34.4706C222.241 39.2933 217.336 44.5974 212.888 50.2552C207.149 57.5515 201.677 64.9275 197.062 72.9917C192.335 81.2497 188.614 89.9405 185.091 98.7707C178.864 114.396 175.62 130.666 173.911 147.362C172.027 165.762 173.403 184.021 175.932 202.282C180.786 237.356 193.177 270.739 207.124 303.104C220.978 335.246 236.601 366.819 255.158 396.52C265.493 413.056 276.867 428.956 289.138 444.115C300.146 457.715 312.134 470.541 325.188 482.205C338.635 494.223 353.114 505.343 368.564 514.682C383.135 523.489 398.658 530.563 414.601 536.511C428.629 541.746 443.178 545.625 457.983 547.879C474.461 550.385 491.056 551.708 507.7 550.395C524.32 549.086 540.945 546.143 556.652 540.462C573.433 534.392 589.337 526.437 603.742 515.869C618.572 504.993 632.097 492.936 644.103 478.985C656.269 464.847 667.28 449.641 677.12 433.799C685.879 419.701 693.77 405.081 701.155 390.222C709.147 374.142 716.677 357.816 723.524 341.21C731.191 322.608 738.307 303.824 743.708 284.427C749.116 265.005 752.655 245.189 754.579 225.121C756.101 209.24 756.125 193.246 754.305 177.388C752.324 160.113 749.139 143.082 743.357 126.648C737.881 111.083 731.003 95.8587 721.812 82.1172C712.59 68.3292 701.846 55.459 688.964 44.9486C686.552 42.3253 683.684 40.4929 680.359 39.4513C677.335 37.8817 674.081 37.1722 670.605 37.3233C667.22 37.2236 664.05 37.9328 661.096 39.4396C657.904 40.4482 655.129 42.1982 652.779 44.6852C648.212 49.61 644.816 56.1381 645.156 63.0463L646.033 69.5299C647.211 73.8699 649.372 77.6529 652.518 80.8726C661.426 88.1407 669.379 96.4864 676.319 105.65C674.985 103.887 673.649 102.123 672.316 100.36C680.821 111.68 687.711 124.113 693.097 137.196C692.268 135.179 691.444 133.161 690.614 131.143C696.984 146.751 701.199 163.163 703.478 179.86C703.188 177.698 702.892 175.538 702.602 173.376C705.252 193.167 705.023 213.134 702.58 232.934L703.401 226.352C700.185 251.942 693.424 276.947 684.662 301.169C682.13 308.163 679.433 315.094 676.608 321.976C677.477 319.86 678.349 317.746 679.218 315.63C672.085 332.952 664.203 349.978 655.812 366.722C648.027 382.261 639.664 397.527 630.321 412.183C624.991 420.54 619.332 428.686 613.289 436.545C614.687 434.735 616.082 432.923 617.48 431.112C605.236 446.961 591.355 461.581 575.384 473.724C577.147 472.39 578.911 471.054 580.674 469.721C569.257 478.346 556.859 485.622 543.632 491.101C545.649 490.272 547.667 489.447 549.685 488.618C537.159 493.756 524.018 497.21 510.612 499.062C512.774 498.771 514.934 498.476 517.096 498.185C501.283 500.318 485.253 500.22 469.43 498.244L476.012 499.065C456.816 496.619 438.045 491.455 420.157 484.102C422.273 484.971 424.387 485.843 426.503 486.711C407.073 478.673 388.747 468.084 372.074 455.271L377.507 459.462C359.981 445.93 344.133 430.347 329.892 413.406C325.802 408.538 321.841 403.56 318.001 398.492L322.004 403.782C297.292 371.097 277.692 334.865 260.528 297.747C255.906 287.746 251.442 277.67 247.254 267.477C248.084 269.495 248.908 271.513 249.737 273.53C240.976 252.152 233.405 230.204 228.603 207.575C227.261 201.25 226.146 194.874 225.275 188.467C225.565 190.629 225.861 192.789 226.151 194.951C223.893 178.02 223.371 160.775 225.457 143.796C225.184 145.989 224.909 148.185 224.635 150.378C226.378 136.594 229.949 123.09 235.197 110.226C234.328 112.342 233.456 114.456 232.588 116.572C237.593 104.421 244.076 92.9067 252.073 82.4667C250.675 84.2771 249.28 86.0892 247.882 87.8996C254.622 79.1671 262.383 71.2614 271.164 64.5727C269.401 65.9059 267.637 67.2422 265.874 68.5754C273.144 63.0901 281.035 58.497 289.454 55.0133C287.437 55.8425 285.419 56.6669 283.401 57.4962C291.099 54.3543 299.142 52.1756 307.38 51.0399C305.218 51.3304 303.058 51.6258 300.896 51.9163C309.343 50.7948 317.877 50.7866 326.333 51.8162C324.14 51.5429 321.944 51.2678 319.751 50.9945C329.631 52.2434 339.264 54.8799 348.479 58.6453C346.364 57.7765 344.249 56.9046 342.133 56.0359C353.206 60.6068 363.553 66.7451 373.037 74.0461C371.227 72.6481 369.414 71.2532 367.604 69.8552C378.186 78.0611 387.619 87.6593 395.719 98.3172C394.385 96.5546 393.049 94.7902 391.716 93.0276C399.375 103.177 405.783 114.233 410.654 125.985C409.825 123.968 409.001 121.949 408.171 119.932C413.808 133.677 417.344 148.273 419.34 162.972C419.049 160.81 418.754 158.65 418.464 156.488C421.139 176.606 420.756 196.988 418.267 217.103L419.088 210.521C415.541 238.758 407.976 266.363 398.354 293.1C395.446 301.186 392.343 309.204 389.081 317.155C389.95 315.039 390.822 312.925 391.691 310.809C379.649 340.058 365.225 368.401 347.677 394.746C342.711 402.202 337.491 409.482 332.021 416.576C333.419 414.766 334.814 412.954 336.212 411.143C322.959 428.264 308.193 444.224 291.802 458.388C287.172 462.386 282.419 466.234 277.545 469.936L282.835 465.933C268.389 476.855 252.912 486.324 236.551 494.097C232.135 496.196 227.659 498.17 223.135 500.03C225.153 499.2 227.171 498.376 229.188 497.547C211.397 504.827 192.873 510.243 173.99 513.827C168.604 514.849 163.191 515.72 157.754 516.454C159.915 516.163 162.076 515.868 164.237 515.577C142.528 518.473 120.544 519.086 98.6993 517.556C92.4935 517.119 86.3012 516.511 80.1299 515.737L86.7122 516.559C62.9323 513.554 39.4763 508.098 16.8108 500.293C10.418 498.091 4.09404 495.699 -2.15916 493.135C-0.0432605 494.004 2.07091 494.876 4.18684 495.745C-17.1821 486.944 -37.6832 476.043 -56.8132 463.066C-62.4021 459.273 -67.8672 455.301 -73.2161 451.171L-67.7833 455.362C-86.2012 441.102 -103.238 425.054 -118.4 407.364C-122.68 402.37 -126.806 397.243 -130.778 392C-129.445 393.763 -128.108 395.527 -126.775 397.29C-138.626 381.582 -149.039 364.792 -157.594 347.069C-160.014 342.053 -162.281 336.962 -164.398 331.809L-161.915 337.862C-170.125 317.782 -175.887 296.793 -178.824 275.29C-178.534 277.451 -178.239 279.612 -177.948 281.773C-180.759 260.839 -180.956 239.592 -178.386 218.626L-179.207 225.209C-176.72 205.31 -171.742 185.759 -164.118 167.202L-166.728 173.548C-159.973 157.238 -151.22 141.799 -140.442 127.807L-144.633 133.24C-133.975 119.484 -121.512 107.199 -107.653 96.6815L-112.942 100.684C-99.6582 90.6587 -85.1646 82.304 -69.7786 75.9496C-71.7959 76.7789 -73.8145 77.6033 -75.8317 78.4325C-61.8262 72.6926 -47.1631 68.6492 -32.1638 66.5887C-34.3254 66.8792 -36.4858 67.1745 -38.6474 67.465C-24.9588 65.6283 -11.0719 65.4446 2.64098 67.1544C0.447912 66.8811 -1.74824 66.606 -3.94131 66.3327C10.0215 68.1211 23.681 71.8063 36.6999 77.1483C34.584 76.2795 32.4699 75.4076 30.354 74.5388C44.0008 80.1859 56.8548 87.6114 68.5621 96.6107C66.7518 95.2126 64.9397 93.8176 63.1293 92.4196C74.1973 100.984 84.1633 110.91 92.6462 122.048C91.313 120.286 89.9767 118.521 88.6435 116.759C96.1205 126.647 102.372 137.415 107.1 148.88C106.271 146.863 105.447 144.844 104.618 142.827C109.113 153.85 112.088 165.397 113.719 177.182C113.428 175.02 113.133 172.86 112.843 170.699C114.875 185.768 114.664 201.027 112.801 216.1L113.623 209.517C111.072 229.719 105.659 249.454 98.7242 268.565C96.7276 274.063 94.6016 279.515 92.378 284.922C93.2468 282.806 94.1186 280.692 94.9874 278.576C87.2096 297.434 78.2709 315.823 68.7842 333.875C58.372 353.686 47.0857 373.049 34.7088 391.701C27.7066 402.252 20.3494 412.564 12.6254 422.596L16.8165 417.163C-1.23883 440.541 -21.3662 462.398 -43.8307 481.61C-49.3026 486.291 -54.9175 490.807 -60.6545 495.159C-58.8919 493.826 -57.1276 492.489 -55.365 491.156C-73.4193 504.811 -92.7337 516.812 -113.131 526.652C-118.841 529.407 -124.629 531.985 -130.495 534.392L-124.442 531.909C-146.455 540.903 -169.494 547.323 -193.071 550.532L-186.587 549.656C-207.152 552.409 -227.946 552.633 -248.547 550.069L-241.964 550.891C-262.379 548.303 -282.418 543.097 -301.467 535.303L-295.121 537.912C-312.586 530.713 -329.124 521.354 -344.109 509.838C-342.298 511.236 -340.486 512.631 -338.676 514.03C-351.935 503.781 -363.867 491.895 -373.99 478.531L-369.987 483.82C-370.334 483.362 -370.675 482.902 -371.02 482.44C-372.627 479.354 -374.869 476.891 -377.74 475.057C-380.305 472.698 -383.326 471.13 -386.803 470.353C-390.083 469.375 -393.356 469.245 -396.629 469.969C-399.944 470.139 -403.041 471.112 -405.922 472.891C-411.61 476.467 -416.567 481.913 -418.016 488.679C-418.289 490.872 -418.564 493.068 -418.838 495.261C-418.79 499.727 -417.671 503.906 -415.478 507.798L-415.477 507.794Z" fill="white"/>
<path d="M-415.477 507.794C-409.368 516.023 -403.073 524.023 -395.943 531.393C-390.264 537.26 -384.198 542.756 -377.818 547.851C-363.456 559.323 -348.352 569.446 -331.73 577.352C-314.963 585.326 -297.366 591.814 -279.278 596.05C-261.19 600.285 -243 602.57 -224.702 603.017C-206.623 603.46 -188.555 601.613 -170.749 598.571C-155.108 595.897 -139.713 591.808 -124.757 586.511C-92.7071 575.163 -62.43 559.375 -34.9795 539.308C-20.1005 528.432 -5.81986 516.836 7.52098 504.111C20.8618 491.386 34.1764 476.816 46.1446 461.977C71.3023 430.782 93.0775 397.223 111.843 361.828C120.138 346.182 127.99 330.272 135.095 314.044C142.352 297.466 149.097 280.589 154.301 263.24C159.49 245.952 162.83 228.315 164.58 210.346C166.289 192.797 165.279 175.318 162.199 157.963C160.862 150.429 158.954 142.997 156.402 135.784C153.308 127.031 149.649 118.375 145.227 110.201C141.837 103.936 137.974 97.9276 133.71 92.2244C128.082 84.7043 122.328 77.4026 115.709 70.7256C109.015 63.9724 101.681 58.085 94.144 52.3015C88.3615 47.8635 82.3151 43.79 76.0081 40.1323C69.695 36.471 63.1447 33.2348 56.4096 30.4253C47.6215 26.7587 38.8245 23.3209 29.6106 20.8608C-3.068 12.1357 -38.2334 13.0971 -70.6484 22.5474C-103.608 32.1591 -133.967 49.8734 -159.064 73.2393C-171.61 84.9216 -182.673 98.3421 -192.211 112.574C-202.395 127.761 -210.118 144.386 -216.464 161.502C-222.135 176.805 -226.055 192.746 -228.297 208.908C-230.819 227.12 -232.048 245.329 -230.927 263.703C-229.806 282.115 -227.013 300.606 -222.319 318.455C-217.605 336.377 -210.859 353.835 -202.937 370.57C-195.735 385.781 -187.164 400.333 -177.477 414.09C-166.711 429.381 -154.942 444 -141.969 457.48C-130.314 469.592 -117.754 480.815 -104.472 491.117C-91.2271 501.39 -77.6602 511.048 -63.1602 519.481C-50.7583 526.695 -37.8927 533.105 -24.6802 538.695C-9.32059 545.191 6.242 551.038 22.2911 555.594C51.796 563.968 82.6366 568.6 113.29 569.427C127.566 569.813 141.874 569.277 156.076 567.766C172.11 566.06 188.09 563.537 203.739 559.627C219.568 555.674 234.801 550.188 249.848 543.917C262.895 538.481 275.517 532.024 287.531 524.581C318.528 505.38 345.947 480.471 368.661 452.008C381.094 436.429 392.618 420.213 402.851 403.101C412.057 387.71 420.315 371.759 427.747 355.438C442.49 323.075 455.237 289.342 463.093 254.594C467.057 237.054 469.735 219.129 470.933 201.186C472.135 183.164 471.047 165.394 468.444 147.539C465.93 130.291 460.905 113.839 453.931 97.8858C447.363 82.869 438.094 69.2343 427.619 56.6796C417.134 44.1195 404.533 33.3362 390.972 24.2224C385.134 20.2984 378.997 16.8164 372.611 13.8639C364.569 10.1482 356.233 6.77936 347.667 4.44737C314.739 -4.5204 278.719 0.116267 249.524 17.9736C241.741 22.7356 234.35 28.36 227.581 34.4706C222.241 39.2933 217.336 44.5974 212.888 50.2552C207.149 57.5515 201.677 64.9275 197.062 72.9917C192.335 81.2497 188.614 89.9405 185.091 98.7707C178.864 114.396 175.62 130.666 173.911 147.362C172.027 165.762 173.403 184.021 175.932 202.282C180.786 237.356 193.177 270.739 207.124 303.104C220.978 335.246 236.601 366.819 255.158 396.52C265.493 413.056 276.867 428.956 289.138 444.115C300.146 457.715 312.134 470.541 325.188 482.205C338.635 494.223 353.114 505.343 368.564 514.682C383.135 523.489 398.658 530.563 414.601 536.511C428.629 541.746 443.178 545.625 457.983 547.879C474.461 550.385 491.056 551.708 507.7 550.395C524.32 549.086 540.945 546.143 556.652 540.462C573.433 534.392 589.337 526.437 603.742 515.869C618.572 504.993 632.097 492.936 644.103 478.985C656.269 464.847 667.28 449.641 677.12 433.799C685.879 419.701 693.77 405.081 701.155 390.222C709.147 374.142 716.677 357.816 723.524 341.21C731.191 322.608 738.307 303.824 743.708 284.427C749.116 265.005 752.655 245.189 754.579 225.121C756.101 209.24 756.125 193.246 754.305 177.388C752.324 160.113 749.139 143.082 743.357 126.648C737.881 111.083 731.003 95.8587 721.812 82.1172C712.59 68.3292 701.846 55.459 688.964 44.9486C686.552 42.3253 683.684 40.4929 680.359 39.4513C677.335 37.8817 674.081 37.1722 670.605 37.3233C667.22 37.2236 664.05 37.9328 661.096 39.4396C657.904 40.4482 655.129 42.1982 652.779 44.6852C648.212 49.61 644.816 56.1381 645.156 63.0463L646.033 69.5299C647.211 73.8699 649.372 77.6529 652.518 80.8726C661.426 88.1407 669.379 96.4864 676.319 105.65C674.985 103.887 673.649 102.123 672.316 100.36C680.821 111.68 687.711 124.113 693.097 137.196C692.268 135.179 691.444 133.161 690.614 131.143C696.984 146.751 701.199 163.163 703.478 179.86C703.188 177.698 702.892 175.538 702.602 173.376C705.252 193.167 705.023 213.134 702.58 232.934L703.401 226.352C700.185 251.942 693.424 276.947 684.662 301.169C682.13 308.163 679.433 315.094 676.608 321.976C677.477 319.86 678.349 317.746 679.218 315.63C672.085 332.952 664.203 349.978 655.812 366.722C648.027 382.261 639.664 397.527 630.321 412.183C624.991 420.54 619.332 428.686 613.289 436.545C614.687 434.735 616.082 432.923 617.48 431.112C605.236 446.961 591.355 461.581 575.384 473.724C577.147 472.39 578.911 471.054 580.674 469.721C569.257 478.346 556.859 485.622 543.632 491.101C545.649 490.272 547.667 489.447 549.685 488.618C537.159 493.756 524.018 497.21 510.612 499.062C512.774 498.771 514.934 498.476 517.096 498.185C501.283 500.318 485.253 500.22 469.43 498.244L476.012 499.065C456.816 496.619 438.045 491.455 420.157 484.102C422.273 484.971 424.387 485.843 426.503 486.711C407.073 478.673 388.747 468.084 372.074 455.271L377.507 459.462C359.981 445.93 344.133 430.347 329.892 413.406C325.802 408.538 321.841 403.56 318.001 398.492L322.004 403.782C297.292 371.097 277.692 334.865 260.528 297.747C255.906 287.746 251.442 277.67 247.254 267.477C248.084 269.495 248.908 271.513 249.737 273.53C240.976 252.152 233.405 230.204 228.603 207.575C227.261 201.25 226.146 194.874 225.275 188.467C225.565 190.629 225.861 192.789 226.151 194.951C223.893 178.02 223.371 160.775 225.457 143.796C225.184 145.989 224.909 148.185 224.635 150.378C226.378 136.594 229.949 123.09 235.197 110.226C234.328 112.342 233.456 114.456 232.588 116.572C237.593 104.421 244.076 92.9067 252.073 82.4667C250.675 84.2771 249.28 86.0892 247.882 87.8996C254.622 79.1671 262.383 71.2614 271.164 64.5727C269.401 65.9059 267.637 67.2422 265.874 68.5754C273.144 63.0901 281.035 58.497 289.454 55.0133C287.437 55.8425 285.419 56.6669 283.401 57.4962C291.099 54.3543 299.142 52.1756 307.38 51.0399C305.218 51.3304 303.058 51.6258 300.896 51.9163C309.343 50.7948 317.877 50.7866 326.333 51.8162C324.14 51.5429 321.944 51.2678 319.751 50.9945C329.631 52.2434 339.264 54.8799 348.479 58.6453C346.364 57.7765 344.249 56.9046 342.133 56.0359C353.206 60.6068 363.553 66.7451 373.037 74.0461C371.227 72.6481 369.414 71.2532 367.604 69.8552C378.186 78.0611 387.619 87.6593 395.719 98.3172C394.385 96.5546 393.049 94.7902 391.716 93.0276C399.375 103.177 405.783 114.233 410.654 125.985C409.825 123.968 409.001 121.949 408.171 119.932C413.808 133.677 417.344 148.273 419.34 162.972C419.049 160.81 418.754 158.65 418.464 156.488C421.139 176.606 420.756 196.988 418.267 217.103L419.088 210.521C415.541 238.758 407.976 266.363 398.354 293.1C395.446 301.186 392.343 309.204 389.081 317.155C389.95 315.039 390.822 312.925 391.691 310.809C379.649 340.058 365.225 368.401 347.677 394.746C342.711 402.202 337.491 409.482 332.021 416.576C333.419 414.766 334.814 412.954 336.212 411.143C322.959 428.264 308.193 444.224 291.802 458.388C287.172 462.386 282.419 466.234 277.545 469.936L282.835 465.933C268.389 476.855 252.912 486.324 236.551 494.097C232.135 496.196 227.659 498.17 223.135 500.03C225.153 499.2 227.171 498.376 229.188 497.547C211.397 504.827 192.873 510.243 173.99 513.827C168.604 514.849 163.191 515.72 157.754 516.454C159.915 516.163 162.076 515.868 164.237 515.577C142.528 518.473 120.544 519.086 98.6993 517.556C92.4935 517.119 86.3012 516.511 80.1299 515.737L86.7122 516.559C62.9323 513.554 39.4763 508.098 16.8108 500.293C10.418 498.091 4.09404 495.699 -2.15916 493.135C-0.0432605 494.004 2.07091 494.876 4.18684 495.745C-17.1821 486.944 -37.6832 476.043 -56.8132 463.066C-62.4021 459.273 -67.8672 455.301 -73.2161 451.171L-67.7833 455.362C-86.2012 441.102 -103.238 425.054 -118.4 407.364C-122.68 402.37 -126.806 397.243 -130.778 392C-129.445 393.763 -128.108 395.527 -126.775 397.29C-138.626 381.582 -149.039 364.792 -157.594 347.069C-160.014 342.053 -162.281 336.962 -164.398 331.809L-161.915 337.862C-170.125 317.782 -175.887 296.793 -178.824 275.29C-178.534 277.451 -178.239 279.612 -177.948 281.773C-180.759 260.839 -180.956 239.592 -178.386 218.626L-179.207 225.209C-176.72 205.31 -171.742 185.759 -164.118 167.202L-166.728 173.548C-159.973 157.238 -151.22 141.799 -140.442 127.807L-144.633 133.24C-133.975 119.484 -121.512 107.199 -107.653 96.6815L-112.942 100.684C-99.6582 90.6587 -85.1646 82.304 -69.7786 75.9496C-71.7959 76.7789 -73.8145 77.6033 -75.8317 78.4325C-61.8262 72.6926 -47.1631 68.6492 -32.1638 66.5887C-34.3254 66.8792 -36.4858 67.1745 -38.6474 67.465C-24.9588 65.6283 -11.0719 65.4446 2.64098 67.1544C0.447912 66.8811 -1.74824 66.606 -3.94131 66.3327C10.0215 68.1211 23.681 71.8063 36.6999 77.1483C34.584 76.2795 32.4699 75.4076 30.354 74.5388C44.0008 80.1859 56.8548 87.6114 68.5621 96.6107C66.7518 95.2126 64.9397 93.8176 63.1293 92.4196C74.1973 100.984 84.1633 110.91 92.6462 122.048C91.313 120.286 89.9767 118.521 88.6435 116.759C96.1205 126.647 102.372 137.415 107.1 148.88C106.271 146.863 105.447 144.844 104.618 142.827C109.113 153.85 112.088 165.397 113.719 177.182C113.428 175.02 113.133 172.86 112.843 170.699C114.875 185.768 114.664 201.027 112.801 216.1L113.623 209.517C111.072 229.719 105.659 249.454 98.7242 268.565C96.7276 274.063 94.6016 279.515 92.378 284.922C93.2468 282.806 94.1186 280.692 94.9874 278.576C87.2096 297.434 78.2709 315.823 68.7842 333.875C58.372 353.686 47.0857 373.049 34.7088 391.701C27.7066 402.252 20.3494 412.564 12.6254 422.596L16.8165 417.163C-1.23883 440.541 -21.3662 462.398 -43.8307 481.61C-49.3026 486.291 -54.9175 490.807 -60.6545 495.159C-58.8919 493.826 -57.1276 492.489 -55.365 491.156C-73.4193 504.811 -92.7337 516.812 -113.131 526.652C-118.841 529.407 -124.629 531.985 -130.495 534.392L-124.442 531.909C-146.455 540.903 -169.494 547.323 -193.071 550.532L-186.587 549.656C-207.152 552.409 -227.946 552.633 -248.547 550.069L-241.964 550.891C-262.379 548.303 -282.418 543.097 -301.467 535.303L-295.121 537.912C-312.586 530.713 -329.124 521.354 -344.109 509.838C-342.298 511.236 -340.486 512.631 -338.676 514.03C-351.935 503.781 -363.867 491.895 -373.99 478.531L-369.987 483.82C-370.334 483.362 -370.675 482.902 -371.02 482.44C-372.627 479.354 -374.869 476.891 -377.74 475.057C-380.305 472.698 -383.326 471.13 -386.803 470.353C-390.083 469.375 -393.356 469.245 -396.629 469.969C-399.944 470.139 -403.041 471.112 -405.922 472.891C-411.61 476.467 -416.567 481.913 -418.016 488.679C-418.289 490.872 -418.564 493.068 -418.838 495.261C-418.79 499.727 -417.671 503.906 -415.478 507.798L-415.477 507.794Z" fill="url(#paint0_linear_1_117)"/>
</g>
<defs>
<linearGradient id="paint0_linear_1_117" x1="-36.6864" y1="748.418" x2="562.941" y2="-243.741" gradientUnits="userSpaceOnUse">
<stop stop-color="white"/>
<stop offset="0.236253" stop-color="#FFA180"/>
<stop offset="0.5" stop-color="#627AED"/>
<stop offset="1" stop-color="#8000FF"/>
</linearGradient>
</defs>
</svg>
