<svg width="374" height="593" viewBox="0 0 374 593" fill="none" xmlns="http://www.w3.org/2000/svg">
<path opacity="0.2" d="M-45.4766 507.794C-39.3676 516.023 -33.0729 524.023 -25.943 531.392C-20.2638 537.26 -14.1977 542.756 -7.81783 547.851C6.54433 559.323 21.648 569.446 38.2697 577.352C55.0369 585.326 72.6336 591.814 90.722 596.049C108.81 600.285 127 602.569 145.298 603.017C163.377 603.46 181.445 601.613 199.251 598.571C214.892 595.897 230.287 591.808 245.243 586.51C277.293 575.163 307.57 559.375 335.02 539.308C349.899 528.432 364.18 516.836 377.521 504.111C390.862 491.386 404.176 476.816 416.145 461.977C441.302 430.782 463.078 397.223 481.843 361.828C490.138 346.182 497.99 330.271 505.095 314.044C512.352 297.466 519.097 280.589 524.301 263.24C529.49 245.952 532.83 228.315 534.58 210.346C536.289 192.797 535.279 175.318 532.199 157.962C530.862 150.429 528.954 142.997 526.402 135.784C523.308 127.031 519.649 118.375 515.227 110.201C511.837 103.936 507.974 97.9276 503.71 92.2244C498.082 84.7043 492.328 77.4026 485.709 70.7255C479.015 63.9724 471.681 58.085 464.144 52.3015C458.361 47.8634 452.315 43.79 446.008 40.1322C439.695 36.471 433.145 33.2348 426.41 30.4252C417.622 26.7587 408.825 23.3208 399.611 20.8608C366.932 12.1357 331.767 13.0971 299.352 22.5474C266.392 32.1591 236.033 49.8734 210.936 73.2393C198.39 84.9216 187.327 98.342 177.789 112.574C167.605 127.761 159.882 144.386 153.536 161.502C147.865 176.805 143.945 192.746 141.703 208.908C139.181 227.12 137.953 245.329 139.073 263.703C140.194 282.115 142.987 300.606 147.681 318.455C152.395 336.377 159.141 353.835 167.063 370.57C174.265 385.781 182.836 400.333 192.523 414.09C203.289 429.381 215.058 444 228.031 457.48C239.686 469.592 252.246 480.815 265.528 491.117C278.773 501.39 292.34 511.048 306.84 519.481C319.242 526.695 332.107 533.105 345.32 538.695C360.679 545.191 376.242 551.038 392.291 555.594C421.796 563.967 452.637 568.6 483.29 569.427C497.566 569.813 511.874 569.277 526.076 567.766C542.11 566.06 558.09 563.536 573.738 559.627C589.568 555.674 604.801 550.188 619.848 543.917C632.895 538.481 645.517 532.024 657.531 524.581C688.528 505.38 715.947 480.471 738.661 452.008C751.094 436.428 762.618 420.213 772.851 403.101C782.057 387.71 790.314 371.759 797.747 355.438C812.49 323.075 825.237 289.342 833.093 254.594C837.057 237.054 839.735 219.129 840.933 201.186C842.135 183.164 841.047 165.394 838.444 147.539C835.93 130.291 830.905 113.839 823.931 97.8858C817.363 82.869 808.094 69.2343 797.619 56.6796C787.135 44.1195 774.533 33.3362 760.972 24.2224C755.134 20.2984 748.997 16.8164 742.611 13.8639C734.569 10.1482 726.233 6.77936 717.667 4.44737C684.739 -4.52041 648.719 0.11626 619.525 17.9736C611.741 22.7356 604.35 28.36 597.581 34.4706C592.241 39.2933 587.336 44.5974 582.888 50.2552C577.149 57.5515 571.677 64.9275 567.062 72.9917C562.335 81.2497 558.614 89.9405 555.091 98.7707C548.864 114.396 545.62 130.666 543.911 147.362C542.027 165.762 543.403 184.021 545.932 202.282C550.786 237.356 563.177 270.739 577.124 303.104C590.978 335.246 606.601 366.819 625.158 396.52C635.493 413.056 646.867 428.956 659.138 444.115C670.146 457.715 682.134 470.541 695.188 482.205C708.635 494.223 723.114 505.343 738.564 514.682C753.135 523.489 768.658 530.563 784.601 536.511C798.629 541.746 813.178 545.625 827.983 547.879C844.461 550.385 861.056 551.708 877.7 550.395C894.32 549.086 910.945 546.143 926.652 540.462C943.433 534.392 959.337 526.437 973.742 515.869C988.572 504.993 1002.1 492.936 1014.1 478.985C1026.27 464.847 1037.28 449.641 1047.12 433.799C1055.88 419.701 1063.77 405.081 1071.16 390.222C1079.15 374.142 1086.68 357.816 1093.52 341.21C1101.19 322.608 1108.31 303.824 1113.71 284.427C1119.12 265.005 1122.66 245.189 1124.58 225.121C1126.1 209.24 1126.12 193.246 1124.31 177.388C1122.32 160.113 1119.14 143.082 1113.36 126.648C1107.88 111.083 1101 95.8587 1091.81 82.1172C1082.59 68.3292 1071.85 55.459 1058.96 44.9486C1056.55 42.3254 1053.68 40.4929 1050.36 39.4513C1047.33 37.8817 1044.08 37.1722 1040.6 37.3233C1037.22 37.2237 1034.05 37.9328 1031.1 39.4396C1027.9 40.4482 1025.13 42.1982 1022.78 44.6852C1018.21 49.6101 1014.82 56.1381 1015.16 63.0464L1016.03 69.5299C1017.21 73.8699 1019.37 77.653 1022.52 80.8726C1031.43 88.1407 1039.38 96.4864 1046.32 105.65C1044.99 103.887 1043.65 102.123 1042.32 100.361C1050.82 111.68 1057.71 124.113 1063.1 137.196C1062.27 135.179 1061.44 133.161 1060.61 131.143C1066.98 146.751 1071.2 163.163 1073.48 179.86C1073.19 177.698 1072.89 175.538 1072.6 173.376C1075.25 193.167 1075.02 213.134 1072.58 232.934L1073.4 226.352C1070.18 251.942 1063.42 276.947 1054.66 301.169C1052.13 308.163 1049.43 315.094 1046.61 321.976C1047.48 319.86 1048.35 317.746 1049.22 315.63C1042.08 332.952 1034.2 349.978 1025.81 366.722C1018.03 382.261 1009.66 397.527 1000.32 412.183C994.991 420.54 989.332 428.686 983.288 436.545C984.687 434.735 986.081 432.923 987.48 431.112C975.236 446.961 961.355 461.581 945.384 473.724C947.147 472.39 948.911 471.054 950.674 469.721C939.257 478.346 926.859 485.622 913.632 491.101C915.649 490.272 917.667 489.447 919.685 488.618C907.159 493.756 894.018 497.21 880.612 499.062C882.774 498.771 884.934 498.476 887.096 498.185C871.283 500.318 855.253 500.22 839.43 498.244L846.012 499.065C826.816 496.619 808.045 491.455 790.157 484.102C792.273 484.971 794.387 485.843 796.503 486.711C777.073 478.673 758.747 468.084 742.074 455.271L747.507 459.462C729.981 445.93 714.133 430.347 699.892 413.406C695.802 408.538 691.841 403.56 688.001 398.492L692.004 403.782C667.292 371.097 647.692 334.865 630.528 297.747C625.906 287.746 621.442 277.67 617.254 267.477C618.084 269.495 618.908 271.513 619.737 273.53C610.976 252.152 603.405 230.204 598.603 207.575C597.262 201.25 596.146 194.874 595.275 188.467C595.565 190.629 595.861 192.789 596.151 194.951C593.893 178.02 593.371 160.775 595.457 143.796C595.184 145.989 594.909 148.185 594.635 150.378C596.378 136.594 599.949 123.09 605.197 110.226C604.328 112.342 603.456 114.456 602.588 116.572C607.593 104.421 614.076 92.9066 622.073 82.4667C620.675 84.2771 619.28 86.0892 617.882 87.8995C624.622 79.1671 632.383 71.2614 641.164 64.5727C639.401 65.9059 637.637 67.2422 635.874 68.5754C643.144 63.0901 651.035 58.497 659.454 55.0133C657.437 55.8425 655.419 56.6669 653.401 57.4962C661.099 54.3543 669.142 52.1755 677.38 51.0399C675.218 51.3304 673.058 51.6258 670.896 51.9163C679.343 50.7948 687.877 50.7866 696.333 51.8162C694.14 51.5429 691.944 51.2678 689.751 50.9945C699.631 52.2434 709.264 54.8799 718.479 58.6453C716.364 57.7765 714.249 56.9046 712.133 56.0358C723.206 60.6068 733.553 66.7451 743.037 74.0461C741.227 72.6481 739.415 71.2532 737.604 69.8552C748.186 78.0611 757.619 87.6593 765.719 98.3172C764.385 96.5546 763.049 94.7902 761.716 93.0276C769.375 103.177 775.784 114.233 780.654 125.985C779.825 123.968 779.001 121.949 778.171 119.932C783.808 133.677 787.344 148.273 789.34 162.972C789.049 160.81 788.754 158.65 788.464 156.488C791.139 176.606 790.756 196.988 788.267 217.103L789.088 210.521C785.541 238.758 777.976 266.363 768.354 293.1C765.446 301.186 762.343 309.204 759.081 317.155C759.95 315.039 760.822 312.925 761.691 310.809C749.649 340.058 735.225 368.401 717.677 394.746C712.711 402.202 707.491 409.482 702.021 416.576C703.419 414.766 704.814 412.954 706.212 411.143C692.959 428.264 678.193 444.224 661.802 458.388C657.172 462.386 652.419 466.234 647.545 469.936L652.835 465.933C638.389 476.855 622.912 486.324 606.551 494.097C602.135 496.196 597.659 498.17 593.135 500.03C595.153 499.2 597.171 498.376 599.188 497.547C581.397 504.827 562.873 510.243 543.99 513.827C538.604 514.849 533.191 515.72 527.754 516.454C529.915 516.163 532.076 515.868 534.237 515.577C512.528 518.473 490.544 519.086 468.699 517.556C462.493 517.119 456.301 516.51 450.13 515.737L456.712 516.559C432.932 513.554 409.476 508.098 386.811 500.293C380.418 498.091 374.094 495.699 367.841 493.135C369.957 494.004 372.071 494.876 374.187 495.745C352.818 486.944 332.317 476.043 313.187 463.066C307.598 459.273 302.133 455.301 296.784 451.171L302.217 455.362C283.799 441.102 266.762 425.054 251.6 407.364C247.32 402.37 243.194 397.243 239.222 392C240.555 393.763 241.892 395.527 243.225 397.29C231.374 381.582 220.961 364.792 212.406 347.069C209.986 342.053 207.719 336.962 205.602 331.809L208.085 337.862C199.875 317.782 194.113 296.793 191.176 275.29C191.466 277.451 191.761 279.612 192.052 281.773C189.241 260.839 189.044 239.592 191.614 218.626L190.793 225.209C193.28 205.31 198.258 185.759 205.882 167.202L203.273 173.548C210.027 157.238 218.78 141.799 229.558 127.807L225.367 133.24C236.025 119.483 248.488 107.199 262.347 96.6815L257.058 100.684C270.342 90.6587 284.835 82.3039 300.221 75.9496C298.204 76.7789 296.186 77.6033 294.168 78.4325C308.174 72.6925 322.837 68.6492 337.836 66.5886C335.675 66.8791 333.514 67.1745 331.353 67.465C345.041 65.6282 358.928 65.4446 372.641 67.1543C370.448 66.8811 368.252 66.606 366.059 66.3327C380.022 68.1211 393.681 71.8063 406.7 77.1483C404.584 76.2795 402.47 75.4076 400.354 74.5388C414.001 80.1859 426.855 87.6113 438.562 96.6106C436.752 95.2126 434.94 93.8176 433.129 92.4196C444.197 100.984 454.163 110.91 462.646 122.048C461.313 120.286 459.977 118.521 458.643 116.759C466.121 126.647 472.372 137.415 477.1 148.88C476.271 146.863 475.447 144.844 474.618 142.827C479.113 153.85 482.088 165.397 483.719 177.182C483.428 175.02 483.133 172.86 482.843 170.699C484.875 185.768 484.664 201.027 482.801 216.1L483.623 209.517C481.072 229.719 475.659 249.454 468.724 268.565C466.728 274.063 464.602 279.515 462.378 284.922C463.247 282.806 464.119 280.692 464.987 278.576C457.21 297.434 448.271 315.823 438.784 333.875C428.372 353.685 417.086 373.049 404.709 391.701C397.707 402.252 390.349 412.564 382.625 422.596L386.816 417.163C368.761 440.541 348.634 462.398 326.169 481.61C320.697 486.291 315.083 490.807 309.345 495.159C311.108 493.826 312.872 492.489 314.635 491.156C296.581 504.811 277.266 516.812 256.869 526.652C251.159 529.407 245.371 531.985 239.505 534.392L245.558 531.909C223.545 540.903 200.506 547.323 176.929 550.532L183.413 549.656C162.848 552.409 142.054 552.633 121.453 550.069L128.036 550.891C107.621 548.303 87.5824 543.097 68.5328 535.303L74.8788 537.912C57.414 530.713 40.8764 521.354 25.8913 509.838C27.7016 511.236 29.5137 512.631 31.3241 514.029C18.0649 503.781 6.13283 491.895 -3.9897 478.531L0.013027 483.82C-0.333529 483.362 -0.675228 482.902 -1.02001 482.44C-2.62718 479.354 -4.86865 476.891 -7.74004 475.057C-10.3046 472.698 -13.3257 471.13 -16.8033 470.353C-20.0827 469.375 -23.3557 469.245 -26.6289 469.969C-29.9438 470.139 -33.041 471.112 -35.9223 472.891C-41.6096 476.467 -46.5671 481.913 -48.0159 488.679C-48.2892 490.872 -48.5643 493.068 -48.8376 495.261C-48.7905 499.727 -47.6707 503.906 -45.4784 507.797L-45.4766 507.794Z" fill="white"/>
</svg>
