<svg width="374" height="593" viewBox="0 0 374 593" fill="none" xmlns="http://www.w3.org/2000/svg">
<path opacity="0.2" d="M-791.477 507.794C-785.368 516.023 -779.073 524.023 -771.943 531.393C-766.264 537.26 -760.198 542.756 -753.818 547.851C-739.456 559.323 -724.352 569.446 -707.73 577.352C-690.963 585.326 -673.366 591.814 -655.278 596.05C-637.19 600.285 -619 602.57 -600.702 603.017C-582.623 603.46 -564.555 601.613 -546.749 598.571C-531.108 595.897 -515.713 591.808 -500.757 586.511C-468.707 575.163 -438.43 559.375 -410.98 539.308C-396.101 528.432 -381.82 516.836 -368.479 504.111C-355.138 491.386 -341.824 476.816 -329.855 461.977C-304.698 430.782 -282.922 397.223 -264.157 361.828C-255.862 346.182 -248.01 330.272 -240.905 314.044C-233.648 297.466 -226.903 280.589 -221.699 263.24C-216.51 245.952 -213.17 228.315 -211.42 210.346C-209.711 192.797 -210.721 175.318 -213.801 157.963C-215.138 150.429 -217.046 142.997 -219.598 135.784C-222.692 127.031 -226.351 118.375 -230.773 110.201C-234.163 103.936 -238.026 97.9276 -242.29 92.2244C-247.918 84.7043 -253.672 77.4026 -260.291 70.7256C-266.985 63.9724 -274.319 58.085 -281.856 52.3015C-287.639 47.8635 -293.685 43.79 -299.992 40.1323C-306.305 36.471 -312.855 33.2348 -319.59 30.4253C-328.378 26.7587 -337.176 23.3209 -346.389 20.8608C-379.068 12.1357 -414.233 13.0971 -446.648 22.5474C-479.608 32.1591 -509.967 49.8734 -535.064 73.2393C-547.61 84.9216 -558.673 98.3421 -568.211 112.574C-578.395 127.761 -586.118 144.386 -592.464 161.502C-598.135 176.805 -602.055 192.746 -604.297 208.908C-606.819 227.12 -608.048 245.329 -606.927 263.703C-605.806 282.115 -603.013 300.606 -598.319 318.455C-593.605 336.377 -586.859 353.835 -578.937 370.57C-571.735 385.781 -563.164 400.333 -553.477 414.09C-542.711 429.381 -530.942 444 -517.969 457.48C-506.314 469.592 -493.754 480.815 -480.472 491.117C-467.227 501.39 -453.66 511.048 -439.16 519.481C-426.758 526.695 -413.893 533.105 -400.68 538.695C-385.321 545.191 -369.758 551.038 -353.709 555.594C-324.204 563.968 -293.363 568.6 -262.71 569.427C-248.434 569.813 -234.126 569.277 -219.924 567.766C-203.89 566.06 -187.91 563.537 -172.261 559.627C-156.432 555.674 -141.199 550.188 -126.152 543.917C-113.105 538.481 -100.483 532.024 -88.4685 524.581C-57.4725 505.38 -30.0528 480.471 -7.33864 452.008C5.09424 436.429 16.6181 420.213 26.8508 403.101C36.0569 387.71 44.3145 371.759 51.7473 355.438C66.4898 323.075 79.237 289.342 87.0931 254.594C91.0573 237.054 93.7347 219.129 94.9326 201.186C96.1354 183.164 95.0466 165.394 92.4444 147.539C89.9299 130.291 84.9051 113.839 77.9306 97.8858C71.3631 82.869 62.0941 69.2343 51.6189 56.6796C41.1345 44.1195 28.533 33.3362 14.9716 24.2224C9.13437 20.2984 2.99676 16.8164 -3.38912 13.8639C-11.4309 10.1482 -19.7673 6.77936 -28.333 4.44737C-61.2613 -4.5204 -97.2809 0.116267 -126.476 17.9736C-134.259 22.7356 -141.65 28.36 -148.419 34.4706C-153.759 39.2933 -158.664 44.5974 -163.112 50.2552C-168.851 57.5515 -174.323 64.9275 -178.938 72.9917C-183.665 81.2497 -187.386 89.9405 -190.909 98.7707C-197.136 114.396 -200.38 130.666 -202.089 147.362C-203.973 165.762 -202.597 184.021 -200.068 202.282C-195.214 237.356 -182.823 270.739 -168.876 303.104C-155.022 335.246 -139.399 366.819 -120.842 396.52C-110.507 413.056 -99.1326 428.956 -86.8621 444.115C-75.8544 457.715 -63.8657 470.541 -50.8124 482.205C-37.365 494.223 -22.8863 505.343 -7.4362 514.682C7.13529 523.489 22.6575 530.563 38.6009 536.511C52.6289 541.746 67.1779 545.625 81.9834 547.879C98.4613 550.385 115.056 551.708 131.7 550.395C148.32 549.086 164.945 546.143 180.652 540.462C197.433 534.392 213.337 526.437 227.742 515.869C242.572 504.993 256.097 492.936 268.103 478.985C280.269 464.847 291.28 449.641 301.12 433.799C309.879 419.701 317.77 405.081 325.155 390.222C333.147 374.142 340.677 357.816 347.524 341.21C355.191 322.608 362.307 303.824 367.708 284.427C373.116 265.005 376.655 245.189 378.579 225.121C380.101 209.24 380.125 193.246 378.305 177.388C376.324 160.113 373.139 143.082 367.357 126.648C361.881 111.083 355.003 95.8587 345.812 82.1172C336.59 68.3292 325.846 55.459 312.964 44.9486C310.552 42.3253 307.684 40.4929 304.359 39.4513C301.335 37.8817 298.081 37.1722 294.605 37.3233C291.22 37.2236 288.05 37.9328 285.096 39.4396C281.904 40.4482 279.129 42.1982 276.779 44.6852C272.212 49.61 268.816 56.1381 269.156 63.0463L270.033 69.5299C271.211 73.8699 273.372 77.6529 276.518 80.8726C285.426 88.1407 293.379 96.4864 300.319 105.65C298.985 103.887 297.649 102.123 296.316 100.36C304.821 111.68 311.711 124.113 317.097 137.196C316.268 135.179 315.444 133.161 314.614 131.143C320.984 146.751 325.199 163.163 327.478 179.86C327.188 177.698 326.892 175.538 326.602 173.376C329.252 193.167 329.023 213.134 326.58 232.934L327.401 226.352C324.185 251.942 317.424 276.947 308.662 301.169C306.13 308.163 303.433 315.094 300.608 321.976C301.477 319.86 302.349 317.746 303.218 315.63C296.085 332.952 288.203 349.978 279.812 366.722C272.027 382.261 263.664 397.527 254.321 412.183C248.991 420.54 243.332 428.686 237.289 436.545C238.687 434.735 240.082 432.923 241.48 431.112C229.236 446.961 215.355 461.581 199.384 473.724C201.147 472.39 202.911 471.054 204.674 469.721C193.257 478.346 180.859 485.622 167.632 491.101C169.649 490.272 171.667 489.447 173.685 488.618C161.159 493.756 148.018 497.21 134.612 499.062C136.774 498.771 138.934 498.476 141.096 498.185C125.283 500.318 109.253 500.22 93.4296 498.244L100.012 499.065C80.8164 496.619 62.0451 491.455 44.1566 484.102C46.2726 484.971 48.3866 485.843 50.5026 486.711C31.0729 478.673 12.7467 468.084 -3.92585 455.271L1.50701 459.462C-16.0186 445.93 -31.8675 430.347 -46.1083 413.406C-50.1984 408.538 -54.1593 403.56 -57.9986 398.492L-53.9959 403.782C-78.7083 371.097 -98.3082 334.865 -115.472 297.747C-120.094 287.746 -124.558 277.67 -128.746 267.477C-127.916 269.495 -127.092 271.513 -126.263 273.53C-135.024 252.152 -142.595 230.204 -147.397 207.575C-148.739 201.25 -149.854 194.874 -150.725 188.467C-150.435 190.629 -150.139 192.789 -149.849 194.951C-152.107 178.02 -152.629 160.775 -150.543 143.796C-150.816 145.989 -151.091 148.185 -151.365 150.378C-149.622 136.594 -146.051 123.09 -140.803 110.226C-141.672 112.342 -142.544 114.456 -143.412 116.572C-138.407 104.421 -131.924 92.9067 -123.927 82.4667C-125.325 84.2771 -126.72 86.0892 -128.118 87.8996C-121.378 79.1671 -113.617 71.2614 -104.836 64.5727C-106.599 65.9059 -108.363 67.2422 -110.126 68.5754C-102.856 63.0901 -94.9653 58.497 -86.5456 55.0133C-88.5629 55.8425 -90.5814 56.6669 -92.5987 57.4962C-84.9015 54.3543 -76.8577 52.1756 -68.6203 51.0399C-70.7819 51.3304 -72.9423 51.6258 -75.1039 51.9163C-66.6572 50.7948 -58.1229 50.7866 -49.6668 51.8162C-51.8599 51.5429 -54.056 51.2678 -56.2491 50.9945C-46.3687 52.2434 -36.7356 54.8799 -27.5206 58.6453C-29.6365 57.7765 -31.7506 56.9046 -33.8666 56.0359C-22.7944 60.6068 -12.4466 66.7451 -2.96295 74.0461C-4.77333 72.6481 -6.5855 71.2532 -8.39588 69.8552C2.18592 78.0611 11.6192 87.6593 19.7186 98.3172C18.3854 96.5546 17.0492 94.7902 15.7159 93.0276C23.3747 103.177 29.7835 114.233 34.6543 125.985C33.8251 123.968 33.0006 121.949 32.1714 119.932C37.8077 133.677 41.3441 148.273 43.3399 162.972C43.0494 160.81 42.754 158.65 42.4635 156.488C45.1385 176.606 44.7555 196.988 42.2668 217.103L43.0884 210.521C39.5406 238.758 31.9764 266.363 22.3536 293.1C19.4456 301.186 16.3425 309.204 13.0811 317.155C13.95 315.039 14.8218 312.925 15.6906 310.809C3.64855 340.058 -10.7745 368.401 -28.3235 394.746C-33.2886 402.202 -38.509 409.482 -43.9793 416.576C-42.5813 414.766 -41.1863 412.954 -39.7883 411.143C-53.0411 428.264 -67.8066 444.224 -84.1977 458.388C-88.828 462.386 -93.5814 466.234 -98.4549 469.936L-93.1653 465.933C-107.611 476.855 -123.088 486.324 -139.449 494.097C-143.865 496.196 -148.341 498.17 -152.865 500.03C-150.847 499.2 -148.829 498.376 -146.812 497.547C-164.603 504.827 -183.127 510.243 -202.01 513.827C-207.396 514.849 -212.809 515.72 -218.246 516.454C-216.085 516.163 -213.924 515.868 -211.763 515.577C-233.472 518.473 -255.456 519.086 -277.301 517.556C-283.507 517.119 -289.699 516.511 -295.87 515.737L-289.288 516.559C-313.068 513.554 -336.524 508.098 -359.189 500.293C-365.582 498.091 -371.906 495.699 -378.159 493.135C-376.043 494.004 -373.929 494.876 -371.813 495.745C-393.182 486.944 -413.683 476.043 -432.813 463.066C-438.402 459.273 -443.867 455.301 -449.216 451.171L-443.783 455.362C-462.201 441.102 -479.238 425.054 -494.4 407.364C-498.68 402.37 -502.806 397.243 -506.778 392C-505.445 393.763 -504.108 395.527 -502.775 397.29C-514.626 381.582 -525.039 364.792 -533.594 347.069C-536.014 342.053 -538.281 336.962 -540.398 331.809L-537.915 337.862C-546.125 317.782 -551.887 296.793 -554.824 275.29C-554.534 277.451 -554.239 279.612 -553.948 281.773C-556.759 260.839 -556.956 239.592 -554.386 218.626L-555.207 225.209C-552.72 205.31 -547.742 185.759 -540.118 167.202L-542.728 173.548C-535.973 157.238 -527.22 141.799 -516.442 127.807L-520.633 133.24C-509.975 119.484 -497.512 107.199 -483.653 96.6815L-488.942 100.684C-475.658 90.6587 -461.165 82.304 -445.779 75.9496C-447.796 76.7789 -449.814 77.6033 -451.832 78.4325C-437.826 72.6926 -423.163 68.6492 -408.164 66.5887C-410.325 66.8792 -412.486 67.1745 -414.647 67.465C-400.959 65.6283 -387.072 65.4446 -373.359 67.1544C-375.552 66.8811 -377.748 66.606 -379.941 66.3327C-365.978 68.1211 -352.319 71.8063 -339.3 77.1483C-341.416 76.2795 -343.53 75.4076 -345.646 74.5388C-331.999 80.1859 -319.145 87.6114 -307.438 96.6107C-309.248 95.2126 -311.06 93.8176 -312.871 92.4196C-301.803 100.984 -291.837 110.91 -283.354 122.048C-284.687 120.286 -286.023 118.521 -287.357 116.759C-279.879 126.647 -273.628 137.415 -268.9 148.88C-269.729 146.863 -270.553 144.844 -271.382 142.827C-266.887 153.85 -263.912 165.397 -262.281 177.182C-262.572 175.02 -262.867 172.86 -263.157 170.699C-261.125 185.768 -261.336 201.027 -263.199 216.1L-262.377 209.517C-264.928 229.719 -270.341 249.454 -277.276 268.565C-279.272 274.063 -281.398 279.515 -283.622 284.922C-282.753 282.806 -281.881 280.692 -281.013 278.576C-288.79 297.434 -297.729 315.823 -307.216 333.875C-317.628 353.686 -328.914 373.049 -341.291 391.701C-348.293 402.252 -355.651 412.564 -363.375 422.596L-359.184 417.163C-377.239 440.541 -397.366 462.398 -419.831 481.61C-425.303 486.291 -430.917 490.807 -436.655 495.159C-434.892 493.826 -433.128 492.489 -431.365 491.156C-449.419 504.811 -468.734 516.812 -489.131 526.652C-494.841 529.407 -500.629 531.985 -506.495 534.392L-500.442 531.909C-522.455 540.903 -545.494 547.323 -569.071 550.532L-562.587 549.656C-583.152 552.409 -603.946 552.633 -624.547 550.069L-617.964 550.891C-638.379 548.303 -658.418 543.097 -677.467 535.303L-671.121 537.912C-688.586 530.713 -705.124 521.354 -720.109 509.838C-718.298 511.236 -716.486 512.631 -714.676 514.03C-727.935 503.781 -739.867 491.895 -749.99 478.531L-745.987 483.82C-746.334 483.362 -746.675 482.902 -747.02 482.44C-748.627 479.354 -750.869 476.891 -753.74 475.057C-756.305 472.698 -759.326 471.13 -762.803 470.353C-766.083 469.375 -769.356 469.245 -772.629 469.969C-775.944 470.139 -779.041 471.112 -781.922 472.891C-787.61 476.467 -792.567 481.913 -794.016 488.679C-794.289 490.872 -794.564 493.068 -794.838 495.261C-794.79 499.727 -793.671 503.906 -791.478 507.798L-791.477 507.794Z" fill="white"/>
</svg>
